<svg id="Layer_1" data-name="Layer 1" xmlns="http://www.w3.org/2000/svg" viewBox="0 0 167.15 37.38"><defs><style>.cls-1{fill:#f08e36;}.cls-2{fill:#fff;}</style></defs><circle class="cls-1" cx="115.41" cy="18.48" r="4.14"/><path class="cls-2" d="M44,22.66a6.85,6.85,0,0,0-7-7.1,6.91,6.91,0,0,0-7.17,7.1V41.85H27.85V45.1H29.8v7.19H33V45.1h7.73v7.19H44V45.1h1.9V41.85H44ZM33,41.85V22.66A3.71,3.71,0,0,1,37,18.81a3.59,3.59,0,0,1,3.8,3.85V41.85Z" transform="translate(-27.85 -15.57)"/><polygon class="cls-2" points="25.14 0.5 21.9 0.5 21.9 36.59 32.6 36.59 32.6 33.34 25.14 33.34 25.14 0.5"/><polygon class="cls-2" points="39.82 3.62 47.28 3.62 47.28 0.37 36.57 0.37 36.57 36.59 47.28 36.59 47.28 33.34 39.82 33.34 39.82 11.04 48.98 11.04 48.98 7.8 39.82 7.8 39.82 3.62"/><polygon class="cls-2" points="142.11 3.62 149.56 3.62 149.56 0.37 138.86 0.37 138.86 7.8 136.92 7.8 136.92 11.04 138.86 11.04 138.86 36.83 142.11 36.83 142.11 11.04 151.08 11.04 151.08 7.8 142.11 7.8 142.11 3.62"/><polygon class="cls-2" points="167.15 0.4 152.98 0.4 152.98 3.64 158.44 3.64 158.44 36.83 161.69 36.83 161.69 3.64 167.15 3.64 167.15 0.4"/><polygon class="cls-2" points="65.46 0.37 62.03 0.37 58.74 10.19 55.44 0.37 52.01 0.37 57.03 15.27 49.87 36.56 53.29 36.56 58.74 20.37 64.18 36.56 67.6 36.56 60.45 15.27 65.46 0.37"/><circle class="cls-2" cx="74.12" cy="18.48" r="4.14"/><path class="cls-2" d="M143.26,16a18.49,18.49,0,1,0,18.49,18.49A18.51,18.51,0,0,0,143.26,16Zm0,33.74a15.25,15.25,0,1,1,15.25-15.25A15.26,15.26,0,0,1,143.26,49.7Z" transform="translate(-27.85 -15.57)"/><path class="cls-2" d="M117.2,32.51c-2-1.85-3.52-3.31-3.52-6.87,0-4.63,4.86-6.05,6.31-6.37l.25-.06V16c-3.27.51-9.8,3.17-9.8,9.66,0,5,2.41,7.23,4.54,9.23s3.54,3.33,3.54,6.93c0,2.65-1.43,4.76-4.26,6.29A16.55,16.55,0,0,1,110,49.72v3.21c4.07-.6,11.76-3.69,11.76-11.13C121.76,36.8,119.34,34.52,117.2,32.51Z" transform="translate(-27.85 -15.57)"/></svg>